<svg width="48" height="48" viewBox="0 0 48 48" fill="none" xmlns="http://www.w3.org/2000/svg">
<circle cx="24" cy="24" r="24" fill="#EAF9F5"/>
<circle cx="24" cy="24" r="20" fill="#F3FFFC"/>
<path d="M17.2535 25.9999L28.2418 26.0011C28.3458 26.1727 28.473 26.3321 28.6225 26.474L29.3412 27.1561C29.3002 27.3151 29.247 27.4742 29.1813 27.6339C29.0588 27.5492 28.9117 27.4999 28.753 27.4999H17.2535C16.8393 27.4999 16.5035 27.8357 16.5035 28.2499V29.1573C16.5035 29.8129 16.7895 30.4359 17.2867 30.8634C18.5448 31.945 20.4408 32.5011 23 32.5011C23.2917 32.5011 23.5747 32.4939 23.8492 32.4795C23.9308 32.9259 24.1439 33.3505 24.4807 33.6886L24.7082 33.9167C24.1667 33.973 23.5972 34.0011 23 34.0011C20.1105 34.0011 17.8717 33.3445 16.3088 32.0008C15.4802 31.2884 15.0035 30.25 15.0035 29.1573V28.2499C15.0035 27.0073 16.0109 25.9999 17.2535 25.9999ZM29.0105 24.245L29.5138 23.0582C29.7499 22.5015 30.3153 22.1987 30.8698 22.3143L30.9883 22.3455L31.6186 22.5469C32.2435 22.7466 32.7221 23.2819 32.8767 23.9542C33.244 25.5518 32.8033 27.497 31.5546 29.7896C30.3078 32.0789 28.9412 33.4553 27.4549 33.919C26.8778 34.099 26.2578 33.9682 25.7915 33.5767L25.6683 33.4635L25.1896 32.9829C24.7748 32.5665 24.6893 31.9076 24.9675 31.3921L25.0381 31.2759L25.7596 30.216C26.0434 29.7989 26.5291 29.6016 26.997 29.7012L27.124 29.7359L28.4559 30.18C28.9874 29.7778 29.4306 29.2715 29.7855 28.6612C30.0896 28.138 30.2886 27.6078 30.3823 27.0705L30.4204 26.8013L29.3114 25.7487C28.9461 25.4019 28.8134 24.862 28.9627 24.376L29.0105 24.245L29.5138 23.0582L29.0105 24.245ZM23 14.0046C25.7614 14.0046 28 16.2432 28 19.0046C28 21.7661 25.7614 24.0046 23 24.0046C20.2386 24.0046 18 21.7661 18 19.0046C18 16.2432 20.2386 14.0046 23 14.0046ZM23 15.5046C21.067 15.5046 19.5 17.0716 19.5 19.0046C19.5 20.9376 21.067 22.5046 23 22.5046C24.933 22.5046 26.5 20.9376 26.5 19.0046C26.5 17.0716 24.933 15.5046 23 15.5046Z" fill="#069A71"/>
</svg>
