<svg width="48" height="48" viewBox="0 0 48 48" fill="none" xmlns="http://www.w3.org/2000/svg">
<circle cx="24" cy="24" r="24" fill="#EAF9F5"/>
<circle cx="24" cy="24" r="20" fill="#F3FFFC"/>
<path d="M17.25 16H30.75C32.483 16 33.8992 17.3565 33.9949 19.0656L34 19.25V28.75C34 30.483 32.6435 31.8992 30.9344 31.9949L30.75 32H17.25C15.517 32 14.1008 30.6435 14.0051 28.9344L14 28.75V19.25C14 17.517 15.3565 16.1008 17.0656 16.0051L17.25 16H30.75H17.25ZM32.5 21.373L24.3493 25.6637C24.1619 25.7623 23.9431 25.7764 23.7468 25.706L23.6507 25.6637L15.5 21.374V28.75C15.5 29.6682 16.2071 30.4212 17.1065 30.4942L17.25 30.5H30.75C31.6682 30.5 32.4212 29.7929 32.4942 28.8935L32.5 28.75V21.373ZM30.75 17.5H17.25C16.3318 17.5 15.5788 18.2071 15.5058 19.1065L15.5 19.25V19.679L24 24.1525L32.5 19.678V19.25C32.5 18.3318 31.7929 17.5788 30.8935 17.5058L30.75 17.5Z" fill="#069A71"/>
</svg>
